<svg width="424" height="96" xmlns="http://www.w3.org/2000/svg">
 <g id="Layer_1">
  <title>Layer 1</title>
  <path id="svg_2" d="m13.29035,24.80398c0.58184,-0.12361 4.80786,4.91845 4.88757,5.93447c0.11637,1.4836 2.79291,1.4836 3.49111,1.4836c0.69825,0 5.70218,3.21449 9.07693,6.67628c3.37478,3.46175 13.26629,0.24726 13.9645,0c0.69825,-0.2473 32.58386,-6.79989 41.19528,-2.22542c4.13582,2.19697 12.28793,-5.56495 13.35357,-21.69787c-0.43639,-10.75617 -9.54094,-11.15984 -11.43345,-7.88168c-1.39645,1.45269 -3.78205,1.01998 -3.20018,-1.63815c0.52909,-1.78001 4.07295,-7.26351 10.61883,-4.85264c5.54934,2.04385 8.75907,6.95972 9.94971,14.18702c0.78549,15.57795 -10.21156,27.07593 -10.21156,27.07593c0,0 0.87278,4.07996 2.0947,6.67628c1.22188,2.59632 1.57099,11.49798 1.39642,12.61067c-0.17453,1.11273 5.23671,7.23265 6.98227,7.41806c1.51282,0.74182 5.76038,14.46526 5.93492,17.43245c1.57102,0.83453 -0.17453,5.00719 -2.09466,5.56356c-1.92013,0.55636 -2.4438,-3.33814 -2.4438,-5.19265c0,-1.85451 -1.92013,-10.57075 -7.33137,-11.49798c-5.41124,-0.92727 -10.12424,-4.07996 -10.12424,-4.07996c0,0 -0.34914,1.85455 -1.04735,2.59636c0,0 1.74556,3.15265 1.74556,7.78893c-0.17453,2.03996 -2.96744,8.34534 -4.88757,8.9017c0,0 -3.14201,5.19265 -4.53846,5.19265c-1.39645,0 -3.84026,1.85451 -7.68048,-0.37091c0,0 0.69821,-4.63628 4.18936,-3.33814c0,0 8.20415,-6.67625 4.18932,-9.64348c0,0 -2.44377,-3.70901 -3.84022,-5.19265c-1.39645,-1.4836 -2.79291,-3.89447 -3.14201,-6.67625c0,0 -11.69526,-0.74182 -14.66274,-1.48364c-2.96744,-0.74178 -8.37868,1.11273 -8.37868,2.22542c0,1.11273 0.87278,11.68348 2.44377,13.72344c0,0 0.52367,2.59632 0,3.33814c-0.52367,0.74178 1.92013,6.8617 -2.79291,6.30534c-4.45118,0.83453 -6.63313,-2.87449 -1.39642,-4.07992c0.26182,-3.98721 -6.63316,-20.8633 -11.17163,-18.54518c-5.93492,0.92727 -3.9275,-4.54354 -9.77514,4.07996c-6.10949,7.60348 -16.58287,12.98158 -17.10651,16.31972c0,0 -3.14201,-0.74182 -3.84026,1.85451c0,0 -8.20415,1.11273 -7.68048,-0.37091c0.52367,-1.4836 0.96006,-4.54354 4.18936,-3.3381c0,0 7.33137,-3.05998 14.3136,-18.91609c0,0 -0.87278,-4.07992 0.3491,-7.41806c1.22192,-3.3381 -0.69821,-17.06154 -9.42603,-16.31972c0,0 -3.25838,1.23634 -5.23667,-4.45083c0,0 -0.81461,-1.11273 0,-2.22542c0.81458,-1.11273 2.79291,-2.84358 3.14201,-4.07992c0.3491,-1.23638 1.16372,-3.09088 5.58578,-4.82178c2.0947,-2.31812 -0.2327,-6.9235 0.34914,-7.04715z" stroke-width="0" stroke="#000000" fill="#DDDDDD"/>
  <text font-style="normal" font-weight="bold" xml:space="preserve" text-anchor="start" font-family="'Quicksand'" font-size="60" id="svg_1" y="70.5" x="117.01315" stroke-width="0" stroke="#000000" fill="#DDDDDD">CatGallery</text>
 </g>
</svg>